<?xml version="1.0" encoding="UTF-8" standalone="no"?>
<svg
   xmlns:dc="http://purl.org/dc/elements/1.1/"
   xmlns:cc="http://creativecommons.org/ns#"
   xmlns:rdf="http://www.w3.org/1999/02/22-rdf-syntax-ns#"
   xmlns:svg="http://www.w3.org/2000/svg"
   xmlns="http://www.w3.org/2000/svg"
   viewBox="0 0 614.66669 124"
   height="124"
   width="614.66669"
   xml:space="preserve"
   id="svg2"
   version="1.1"><metadata
     id="metadata8"><rdf:RDF><cc:Work
         rdf:about=""><dc:format>image/svg+xml</dc:format><dc:type
           rdf:resource="http://purl.org/dc/dcmitype/StillImage" /></cc:Work></rdf:RDF></metadata><defs
     id="defs6" /><g
     transform="matrix(1.3333333,0,0,-1.3333333,0,124)"
     id="g10"><g
       transform="scale(0.1)"
       id="g12"><path
         id="path14"
         style="fill:#2e2823;fill-opacity:1;fill-rule:evenodd;stroke:none"
         d="M 4604.61,303.121 C 4519.92,238.871 4438.2,186.09 4359.49,144.73 4281.05,103.398 4205.66,71.8398 4133.44,50.0391 4061.41,28.0508 3992.81,13.9492 3927.7,7.69922 3862.77,1.48047 3801.52,1.37109 3743.98,7.37891 3686.41,13.3594 3632.7,23.5898 3582.93,38.0508 3533.36,52.5 3487.89,69.4883 3446.56,89.0586 c -41.36,19.5704 -78.28,39.9214 -110.74,61.0194 -32.46,20.902 -60.23,40.703 -83.36,59.371 11.8,-4.449 23.59,-9.449 35.35,-15 63.36,-40.929 126.84,-71.168 190.43,-90.699 63.32,-19.5703 125.78,-30.5898 187.38,-33.0117 61.57,-2.457 121.49,1.5625 179.69,11.9922 58.05,10.4297 113.52,25.2385 166.41,44.3395 52.69,19.141 101.91,40.551 147.73,64.34 45.78,23.789 87.23,47.809 124.34,72.031 36.91,24.02 68.59,46.25 95.04,66.68 26.48,20.27 46.83,36.598 61.05,49.059 14.22,12.422 21.45,18.871 21.68,19.3 l 143.05,-95.359" /><path
         id="path16"
         style="fill:#007851;fill-opacity:1;fill-rule:evenodd;stroke:none"
         d="m 3456.56,568.199 h -3.04 l -3.64,-3.629 h -5.66 v 9.649 l 2.66,2.66 3,4.019 v 2.653 l 3.64,5.668 h 3.04 v 3.98 h 12.31 l 3.01,-3.98 h 3.67 v -8.321 l 3,-4.019 h 2.66 v -8.68 l -2.66,-3.629 v -3.05 l -3,3.05 -3.67,-3.05 h -8.68 v 6.679 l -3.67,3.051 h -2.97 v -3.051 m -68.71,159.422 h 3.01 v 3 l 3.67,2.66 3.67,3.008 h 2 v 3.981 l 3,2.699 h 3.64 l 3.04,2.972 2.66,-2.972 2.97,-2.699 3.67,-3.981 v -3.008 l 3.01,-2.66 6.68,-6.672 -3.67,-3.008 -3.01,-2.66 v -4.019 h 6.68 l 2.97,-2.66 v -9.692 l -2.97,-2.961 h -9.69 l -3.67,-2.66 v -6.68 l 3.67,-3.007 v -12.34 l -6.64,-2.703 -2.66,-3.981 -3.04,3.981 -3.64,2.703 v 3.008 l -3,2.652 h -5.67 l -3.67,-2.652 h -3.01 v 2.652 l 3.01,4.027 v 2.653 l 3.67,3.007 v 3.629 l 3.01,3.051 h 2.66 v 2.66 l 3,2.961 v 4.031 l 3.64,2.649 h -3.64 v 3.012 h -12.34 v 6.679 l -3.01,2.66 v 6.68 m 34.34,-483.832 v 2.973 h -6.68 l 9.69,7.687 6.64,4.692 h 5.7 v -2.692 h 12.34 l 3.64,-3.008 h 3.04 v -9.652 h -9.68 l -2.66,-2.66 h -3.01 v -4.02 l -3.67,4.02 h -5.7 l -2.97,-4.02 h -3.67 l -3.01,-2.66 h -6.68 v 2.66 l 3.67,4.02 3.01,2.66 m 0,261.762 -3.01,-3.012 h -3.67 v 18.012 l 3.67,4.019 3.01,2.66 v 2.969 h 9.65 l 2.69,-2.969 h -2.69 v -6.679 h -6.64 v -12.352 l -3.01,-2.648 m -63.01,-296.102 h 4.02 v -1.679 c -2.46,0.199 -4.68,0.55 -6.68,0.98 v 0.699 h 2.66 m 107.03,31.68 v 2.66 l -3.01,2.973 v 3.008 l 3.01,3.671 5.67,3.008 h 3.67 l 5.66,-3.008 h 3.01 v -6.679 h -3.01 l -2.66,-2.973 -6.67,-2.66 v -4.02 h -3.01 l -2.66,4.02 m -53.67,12.312 -5.7,-3.671 -3.64,-3.008 h -8.67 l -3.67,-2.973 v 2.973 h -3.01 l -6.68,6.679 h -12.34 l -2.97,3.008 -2.66,2.692 -4.02,3.98 h -27.66 v 2.66 h 9.65 l 2.66,3.008 h 3.01 v 8.672 h 9.68 l 2.66,-1.992 4.02,-4.02 v -2.66 l 2.66,-3.008 h 9.65 v -2.66 h 5.66 l 3.67,-3.98 h 27.7 v -5.7 m -83.71,376.789 2.69,3.008 v -3.008 h -2.69 m -34.34,-124.679 5.67,2.648 3.67,3.992 2.97,2.649 2.69,3.051 v 2.66 h 6.68 l 3.01,-2.66 v -3.051 l 2.97,-2.649 2.69,-6.64 h 9.65 l 3.67,-3.012 v -6.68 l -3.67,-2.968 v -2.692 l -2.97,-3.988 v -8.359 h -2.69 l -3.99,2.66 v 3.008 l -2.69,6.679 v 2.692 h -2.97 V 468.16 l -3.01,-3.629 -3.67,-6.011 v -2.661 l 3.67,-4.019 -6.68,4.019 -2.69,2.661 -2.97,3 v 3.011 l 2.97,3.629 v 9.692 h 2.69 l -2.69,2.66 v 9.687 l 2.69,5.66 3.01,6.68 v 3.012 h -5.7 l -2.97,-3.012 -3.67,-3.008 h -3.01 l -2.66,3.008 v 3.012 m 46.68,-37.391 v 3.051 h 2.66 v -6.68 l -2.66,-3.011 -3.01,-5.661 -3.67,2.661 -2.97,3 2.97,3.011 3.67,3.629 h 3.01 m -85.04,-196.711 18.01,-41.679 c 13.59,-4.649 27.58,-8.872 42.03,-12.661 6.21,-1.129 12.31,-2.339 18.32,-3.668 l 3.67,-1.019 c 2,-0.863 3.91,-1.211 5.67,-1.012 v 1.012 l -2.66,3.008 h -6.68 l -2.97,3.672 v 3.007 l 2.97,6.68 v 8.32 l -2.97,4.02 v 12.312 l -2.69,3.008 h -6.68 l -2.97,-3.008 h -3.01 l -6.68,-6.679 v -2.973 l 3.01,-2.66 -3.01,-4.02 v -5.66 l -2.69,-2.66 h -9.65 l -2.66,2.66 v 9.68 l -4.02,2.66 v 2.973 h -5.63 v 3.008 l -3.04,3.671 v 3.008 l 3.04,2.692 v 16.328 l -3.04,1.992 -3.64,2.66 -3.04,4.02 v 18.007 l 3.04,2.973 3.64,6.68 v 9.328 l 3.04,3.012 v 6.679 h 5.63 l 6.68,-4.019 h 6.68 l 2.97,4.019 2.69,2.66 v 3 h 3.01 l 3.67,3.008 3.01,-3.008 h 5.66 l 3.99,-3 h 2.69 v -2.66 h 6.64 l 3.01,-4.019 v -8.321 l 2.66,-3.992 v -2.687 h 3.01 l 3.67,-3.012 2.97,-3.668 v -2.973 l 3.04,2.973 h 2.66 l 4.02,3.668 -4.02,3.012 v 9.328 h -2.66 l -3.04,3.012 v 15.347 l -2.97,3.633 h -3.67 l -3.01,5.707 v 3.981 l 3.01,2.66 v 12.34 l 3.67,3.011 v 3.008 l 2.97,3.672 v 5.66 l 3.04,3.988 2.66,2.653 v 5.711 l 4.02,3.976 v 2.66 l 2.66,7.032 v 8.32 l -2.66,3.98 v 2.7 h -4.02 l -2.66,3.011 h 6.68 l 2.66,2.649 h 6.64 l -3.67,3.988 h 3.67 l -3.67,3.012 v 6.68 h 3.67 v 5.66 h -3.67 l 3.67,2.66 3.01,4.019 2.69,2.661 v 3 h 6.64 l 3.01,3.011 3.01,3.629 3.67,3.051 h -3.67 v 2.66 l -6.02,-2.66 h -12.34 v 6.641 l 3.01,2.66 2.69,3.008 2.97,2.691 h 3.67 v 3.988 h 3.01 l 3.01,2.692 3.67,2.968 3.01,3.672 0.66,1.02 2,1.988 h 3 l 3.64,3.012 3.04,2.648 v 3.992 h 2.66 v 8.36 l 2.97,4.019 v 15.309 l 3.67,2.66 v 9.691 l -3.67,2.649 h -2.97 v -2.649 h -2.66 l -6.68,-3.011 -3,-2.699 v -6.641 h -5.67 v 2.66 h -3.67 v 3.981 l 3.67,2.699 v 3.011 h 3.01 l 0.66,2.649 2,3.992 3,2.649 v 3.05 l 6.68,6.68 2.66,2.969 2.97,2.66 v -2.66 h 9.69 v -2.969 h 3.67 l 2.97,2.969 2.69,2.66 v 6.672 l 3.01,3.008 3.67,2.66 v 3.98 l 3.01,2.699 5.66,3.012 h 6.68 v 6.68 l -3.04,2.961 v 9.379 l -3.64,2.968 v 3.672 h -5.66 v -9.34 h -3.01 l -3.67,2.7 v 12.3 h -3.01 v 15.36 l -2.69,4.019 h -6.64 v 2.661 l -3.01,2.96 h -3.01 l -3.67,-2.96 v -6.68 l -2.97,-2.66 h -2.66 l -3.04,-3.051 -3.64,3.051 v 15.98 h -3 v 3 h -2.66 l -3.01,-3 h -6.68 l -3.01,-3.68 -3.67,3.68 h -2.97 v -6.64 l -2.69,-6.68 v -8.68 l -3.01,-3.672 h -3.67 v -3.008 h -2.97 v -5.66 l 2.97,-3.672 v -18.32 l -2.97,-3.668 v -3.012 l -2.66,-6.679 -4.02,-2.66 -2.66,-3.008 -3.04,-2.653 v -4.019 l 3.04,-2.66 v -2.969 l 2.66,-3.051 -2.66,-3.629 v -3.05 h -3.04 l -2.97,3.05 v 6.68 h -3.67 v 15.309 h -8.68 v 9.339 h -6.64 l -2.69,3.012 v 16.32 h -3.99 v 2.7 l -2.69,2.968 h 2.69 v 3.672 l 3.99,3.008 v 5.66 h 2.69 l 2.97,3.672 h 3.67 v 2.969 l 3.01,3.051 2.66,2.66 3.01,4.019 v 5.621 h 3.67 v 3.68 l 2.97,3 3.04,-3 v -3.68 h 6.68 l 2.66,3.68 -2.66,3 h 9.3 v 2.699 h 3.01 v 2.969 l -3.01,3.981 v 2.703 h 3.01 l -3.01,3.008 -3.67,2.652 h 3.67 v 4.027 l 3.01,2.653 h 2.69 l 2.97,3.007 v 6.68 h -2.97 l 2.97,2.66 h 3.67 l 3.01,2.961 v 4.031 l 3.01,2.649 h -9.69 l -2.97,3.012 -2.69,-3.012 h -3.01 v -2.649 l -3.67,-4.031 -2.97,-2.961 h -2.66 l -4.02,-2.66 h -5.7 l -2.97,2.66 2.97,2.961 v 6.68 h 5.7 l 4.02,3.012 v 6.679 h 2.66 l 2.97,2.66 v 6.68 h 6.68 l 2.69,3 v 2.66 h 6.64 v 3.008 l 3.01,3.981 h -3.01 v 5.671 h -3.67 l -2.97,3.668 h -2.69 v 3.012 h -3.01 l -3.67,2.649 h -2.97 l -27.7,-35.348 -3.67,-3.633 -15.31,-20 -3.01,-5.699 -31.33,-60.36 -28.71,-68.71 -15.31,-71.321 -6.68,-72.699 6.68,-71.328 15.31,-74.723 m 134.73,-46.679 3.67,4.019 -3.67,2.66 v 5.66 l 3.67,-5.66 h 12.31 l 3.04,-2.66 -3.04,-4.019 h -6.64 l -2,-0.981 -0.66,-1.68 h -9.69 v 2.661 h 3.01 m 374.76,571.558 h 4.03 v -9.379 l -4.03,-3 v -3.679 l -2.65,-5.622 -2.97,-4.027 -3.67,-2.652 h -3.01 l -3.01,2.652 -2.65,6.68 h -9.69 l -2.7,2.969 v 3.679 l -3.98,3 -2.66,2.699 h -3.01 l -3.67,2.973 h -8.63 l -4.02,3.707 -2.66,2.973 -1.99,2.027 -1.06,0.973 v 2.66 h 3.05 l 2.66,4.019 h 4.02 v -4.019 h 2.66 l 2.97,-2.66 h 6.67 l 3.01,-3 2.66,-2.973 h 6.68 l 3.01,2.973 2.65,3 h 4.03 l 2.65,2.66 h 6.02 l 3.67,-2.66 2.97,-3 2.65,-2.973 m -112.34,83.981 -3.01,3.011 3.01,3.668 3.63,3.012 3.05,2.66 2.66,3 3,3.68 3.68,3 h 9.65 l 2.69,2.969 h 9.65 l -3.67,3.671 v 3.008 h -3.01 l -2.97,5.711 v 6.641 l 23.01,2.648 h 4.65 l 28.67,3.012 h 31.68 l 26.68,-3.012 31.33,-2.648 27.65,-2.969 4.03,-1.019 24.68,-5.661 27.7,-9.382 v -5.969 h -3.05 v -3.68 l -2.65,-5.66 v -6.68 l 2.65,-3.011 3.05,-2.649 -3.05,-2.969 -2.65,-3.711 h -3.99 v 3.711 h -5.66 v -3.711 l 3.01,-2.968 v -3.051 l 2.65,-3.633 h 19.34 l 2.65,-3.008 4.03,-2.66 2.65,-3 h 2.97 l 2.7,-3.68 3.98,-3 v -5.671 l -3.98,-3.668 v -3.012 l 3.98,-3.008 2.7,-3.672 3,-2.969 v -2.652 h 6.65 l 1.01,-2.027 1.99,-1.02 h 12.35 v -3.633 h 2.65 l 4.03,-3.007 h -4.03 v -2.661 h -5.66 l -2.66,-4.019 h -22.03 v 4.019 h -3.98 l -2.7,2.661 -2.97,3.007 h -18.98 l -3.05,3.633 -2.65,3.047 h -9.65 l -2.7,-3.047 h -16.33 l -3,3.047 -2.66,2.652 -3.98,-2.652 v -9.687 l 3.98,-2.661 2.66,-4.019 h 3 l 3.01,-2.66 3.67,2.66 h 2.97 l 2.7,-2.66 h 16.33 l 2.65,2.66 h 6.02 l 3.67,4.019 5.66,2.661 v -2.661 l 4.03,-4.019 -4.03,-2.66 h -2.65 v -3 l 2.65,-6.68 h -21.99 l -2.65,-2.973 h -27.7 l -3.98,2.973 -2.66,3.707 -3.05,2.973 h -2.65 v -2.973 h -4.03 v -3.707 l -2.65,-2.973 v -12.347 l -2.97,-2.653 -3.67,-4.027 -3.01,-2.652 3.01,-3.008 v -3.012 l 3.67,-3.668 h 5.62 l 4.03,-3.011 v -15 h -4.03 v -3.981 l 4.03,-3.008 2.65,-2.66 3.05,-3 2.66,-3.672 3.98,-3.008 -3.98,-2.66 v -9.691 l -2.66,-2.649 h -3.05 v -4.031 l -2.65,-5.621 2.65,-3.051 v -3.629 l 3.05,-5.66 -3.05,2.653 h -12.3 l -3.67,-2.653 h -8.68 v -4.027 l -3.98,-2.652 h -9.38 l -2.96,2.652 v 4.027 h -2.7 v 2.653 h -3.01 l -3.63,3.007 h -6.02 l 2.97,6.68 v 2.66 l -2.97,2.961 v 6.68 h -2.65 l -4.03,3.012 h -2.65 l -3.01,2.66 h -8.67 v 6.679 l 2.03,3.008 6.64,3.672 3.01,3 v 2.66 h 2.65 l 4.03,3.008 h 5.62 l 3.05,3.981 3.63,5.671 3.01,3.668 -6.64,3.012 h -3.05 l -2.97,2.649 -2.65,3.011 -4.03,3.668 -2.65,3.012 v 3.008 h -3.01 l -3.67,2.652 h -2.97 l -2.03,-2.652 h -2.66 l -4.02,-3.008 h -2.66 v -3.012 h -12.34 l 2.65,3.012 v 3.008 l 4.03,2.652 2.65,6.68 3.01,2.969 v 12.351 l -3.01,3.707 h -2.65 v 8.633 l 2.65,4.019 -2.65,2.661 v 6.64 l -4.03,3.047 -2.65,2.652 v 2.969 l 2.65,3.672 -2.65,3.008 H 3760 v 3.012 h -9.69 v 3.668 h -2.65 l 2.65,3.011 3.01,2.66 h 9.65 l 2.65,-2.66 h 6.68 l 3.01,2.66 2.66,3 4.02,3.68 2.66,3 v 2.66 h 2.03 l 6.64,3.008 v 3.633 l 3.01,3.051 -3.01,2.968 v 3.711 l -6.64,2.969 h -11.37 l -3.01,-2.969 h -2.65 v 2.969 l -4.03,2.649 h -2.65 l -2.97,3.011 v 3.668 h 2.97 v 15.352 l -2.97,2.969 -3.67,-2.969 h -3.01 l -3.01,-3 v -3.68 l 3.01,-3 v -9.34 l -3.01,-3.011 v -2.649 l -2.65,-2.969 h -16.37 l -2.66,2.969 -3.01,2.649 h -3.67 l -3,3.011 -2.97,3.668 -2.66,3.012 h -9.73 v -9.691 h 3.05 l 2.66,-2.649 h 9.65 v -6.68 l 3,-2.968 h 3.67 v -3.051 h 12.35 l 3.01,3.051 h 9.33 v -3.051 l 6.02,-3.633 h 3.67 l 5.62,-3.008 -5.62,-5.66 h -22.03 v -3.68 l -2.7,-3 v -2.66 l 2.7,-3.011 v -6.68 l -2.7,3.012 h -3.98 l -2.66,3.668 -3.01,-3.668 h -9.64 l -2.66,3.668 v 3.011 h -4.02 v 2.66 h -2.66 l -1.99,2.032 -1.06,0.968 h -3.63 v 3.68 l -3.01,3 h -5.66 v 9.301 h -9.65 l -6.68,-3.633 h -2.69 v 3.633 l 2.69,3.051 v 6.679 h -2.69 l -2.97,-3.711 h -6.68 l -2.66,3.711 -3.05,2.969 -3.63,2.649 m 283.09,-2.649 -2.7,2.649 v 15.351 l 12.38,-5.66 7.66,-3.012 h 1.99 l 12.35,-6.679 9.68,-2.649 12.35,-6.68 9.3,-6.019 9.68,-6.641 8.32,-3.672 -2.65,-1.988 h -2.7 l -2.97,-3.68 -3.98,-3 h -2.7 v -2.66 h -5.66 l -3.99,-3.011 h -5.7 v -9.688 l -2.65,-3.672 -3.99,-2.969 h -2.66 v 2.969 h -9.68 l -3.01,3.672 h -2.66 l -3.98,3.008 -2.7,3.012 h -3 v 3.668 l -2.66,3.011 v 12.34 l -3.99,2.66 v 9.692 l 3.99,2.968 2.66,3.711 h -2.66 v 2.969 h -13.67 m 85.04,-25 -4.03,1.988 1.33,1.012 2.7,-3 M 3852.66,593.199 h 2.65 l 4.03,-3.98 2.65,-2.66 -2.65,-3.008 v -2.653 l -6.68,-6.679 v -6.02 l -2.97,-3.629 h -6.68 v 6.68 l 3.01,2.969 v 18.98 l 3.67,2.699 2.97,-2.699 m -139.34,168.75 v 3.012 l -6.68,3.008 h -6.68 l -3.01,2.652 v 6.68 l 3.01,2.969 h 9.34 l 4.02,-2.969 2.66,2.969 h 2.97 v -2.969 h 9.68 v -2.653 l 2.66,-4.027 v -5.66 h -2.66 v -3.012 l -3.01,-3.668 h -6.67 l -2.97,3.668 h -2.66 m -147.07,18.321 -3.67,3.679 3.67,3 v 2.699 h 5.66 l 3.01,2.973 h 3.63 l 3.05,3.707 h 2.97 v 2.973 h 3.71 l 2.97,3 h 2.66 l 3,2.66 h 9.34 v -5.66 l -2.66,-2.973 v -3.707 l -3,-2.973 v -2.699 l -3.68,-3 -3,-6.648 -5.63,2.969 -3.71,3.679 h -2.97 l -3.05,-3.679 h -12.3 m 125.04,3.679 v 3 l -3.67,2.699 v 12.653 h 9.33 l 3.01,-3 h 3.63 l 1.06,-2 1.99,-0.973 v -6.68 h -3.05 l -3.63,-2.699 -3.01,-3 h -5.66 M 3544.22,890 l -53.32,-25.039 2.97,9.73 6.68,2.969 5.66,5.66 9.34,3.668 6.68,3.012 h 6.01 l 6.68,2.66 9.3,-2.66 m 293.12,-325.43 2.66,-3.05 v -6.641 l -2.66,-2.649 h -6.68 v 12.34 h 6.68 m -387.46,215.7 -3,3.679 v 12.379 l 3,2.973 3.64,3 v 2.66 h 3.04 l 2.97,4.019 3.67,2.661 h 3.01 l -3.01,-2.661 -3.67,-4.019 -2.97,-2.66 v -9.68 l 2.97,-2.973 3.67,2.973 3.01,3.707 v 2.973 h -3.01 l 3.01,3 h 5.67 l 3.67,2.66 v 4.019 l 3,2.661 h 2.66 l 3.01,3.007 v 3.633 h 3.67 l 3.01,3.047 v 5.621 h 6.64 l 3.01,3.672 2.69,3.008 v 6.68 l 2.97,3.011 v 2.66 h 6.68 v 3 l 2.66,-3 v -2.66 l 3,-3.011 v -3.668 h 13.33 v -3.012 l 3.04,-3.008 2.66,-3.672 h 2.97 l 3.67,3.672 h 3.01 l -3.01,-3.672 v -8.668 l 3.01,-3.633 h 6.68 l 5.66,-5.668 v -4.019 l -2.66,-2.66 v -3 l -3,-6.68 -3.99,-2.973 -5.7,-5.699 h -6.64 v -13.328 l -5.7,-5.66 -3.64,-3.012 -3.01,-3.668 -3,-3.011 -3.68,-2.649 v -3.012 l -3,-3.668 v -2.972 l 3,-2.699 3.68,-3.981 -3.68,-3.008 v -9.332 l -3,-3.008 v -9.339 l -2.66,-3.012 -3.01,-2.649 -6.64,-4.031 h -2.69 l -6.68,-2.961 h -5.98 l -6.68,2.961 -2.66,4.031 -6.67,2.649 v 3.012 l 3.67,2.66 h 3 l -3,4.019 -3.67,2.66 v 3.008 l -3.01,3.672 h -9.34 v 8.668 l 3.67,3.981 3.01,2.699 h 2.66 l -2.66,6.64 v 3.012 l -3.01,2.649 -3.67,3.011 3.67,3.668 v 12.699 h -3.67 l -2.97,2.653 h -3.04 l -3.64,2.969 m 806.6,-257.379 c 0.43,0.429 0.67,0.629 0.67,0.629 0,0 -0.24,-0.2 -0.67,-0.629 m -63.36,-49.02 v 3.981 h 3.01 l 3.32,-3.672 c -1.33,-0.86 -2.54,-1.758 -3.67,-2.66 l -2.66,2.351 m 66.68,48.008 -4.64,20.66 -12.35,41.012 -18.01,41.019 -19.37,40.039 -15,25 -19.3,24.653 -19.02,26.008 -18.01,21.679 -18.98,22 -22.03,18.352 -25,19.027 -21.68,15.313 v -6.02 l -3.01,-3.672 -3.67,-2.969 -2.97,-2.652 -3.05,-3.047 -2.66,-3.633 v -3.007 h -3.98 v -9.34 h -5.66 v -3 h -9.38 l -2.97,-2.973 -3.98,-3.707 V 780.27 h 6.95 l 2.7,-2.969 v -6.68 l -2.7,-2.652 v -3.008 h -2.97 v -3.012 h -3.98 l -2.7,-3.668 -5.66,-5.66 v -3.012 h -3.99 v -3.668 l -5.7,3.668 -2.65,3.012 h -9.65 l -4.03,-3.012 h -12.3 l -2.7,-3.668 h -5.66 v 6.68 l -3.99,2.649 h -5.7 l -3.98,-2.649 -2.7,2.649 -2.97,3.011 -2.65,3.668 v 3.012 h -9.69 l -3.67,-3.012 v -3.668 h -2.97 v -3.011 l -3.05,-2.649 v -6.68 l -2.65,-2.972 v -2.699 l -3.99,-3.981 -2.65,-3.008 -3.01,-2.66 h -2.7 l -3.98,-3 h -2.7 v -3.672 l -2.97,-5.668 v -21.992 l -3.67,-3.051 -3.01,-3.629 v -5.66 l -3,-4.027 h -6.64 l -2.66,-2.652 v -3.008 l -3.05,-2.703 -2.65,-3.981 -4.03,-2.969 h 4.03 l 2.65,-2.699 3.05,-3 v -3.68 l -3.05,-5.621 v -22.031 l 3.05,-6.68 2.66,-2.968 3.98,-6.68 2.66,-5.66 v -9.692 h -2.66 v -2.699 l -3.98,-3.98 v -15 l 3.98,-2.969 v -6.68 l 2.66,-3.05 v -6.641 l 3,-2.649 v -12.351 l -3,-3 v -16.328 l 3,-2.66 v -3.051 l 3.01,-2.649 v -9.652 l 3.67,3.012 h 2.97 v -3.012 h 6.68 l 2.7,-3.008 3.01,-3.672 h 2.65 l 3.99,-2.968 2.65,-2.692 3.05,-3.988 v -2.691 l 2.97,-3.008 v -6.641 l 3.67,-2.66 3.01,-6.68 2.65,-6.011 4.03,-6.68 2.65,-2.66 2.97,-5.66 v -6.68 l 2.7,-7 3.98,-2.649 h 9.69 v -3.011 l 2.66,3.011 h 9.68 v 2.649 h 8.32 l 4.03,-2.649 h 3 l 2.66,-3.011 h 3.99 l 2.65,-2.7 h 9.69 l 2.66,-3.98 h 5.7 l 6.95,3.98 2.7,2.7 3.98,3.011 v 2.649 h 2.7 v 3.988 h 3 l 2.66,3.012 h 12.66 l 3.67,2.691 3.01,3.989 v 2.652 l 2.65,3.008 h 4.03 l 2.65,2.66 3.01,4.019 2.66,2.661 v 6.011 l 3.98,3.629 -3.98,3.051 3.98,6.641 h 2.7 l 3,-3.981 h 16.33 l 2.66,3.981 v 8.359 h -2.66 v 9.648 l 2.66,3.672 3.01,3.008 2.65,3.012 h -2.65 l 6.68,2.648 2.65,3.992 h 3.01 l 6.64,2.649 h 12.34 l 3.01,-2.649 h 6.68 v 2.649 l 2.7,3.051 v 6.679 l 2.97,2.66 v 6.641 h 3.67 l 3.01,3.008 3,-3.008 2.66,-3.672 3.98,-2.969 v -12.39 l 2.66,-6.641 3.05,-2.648 h 2.65 v 2.648 l 4.03,-2.648 2.65,-3.012 v -3.008 l 2.97,-3.672 V 483.52 l 6.68,-3.008 3.01,-2.66 2.66,-6.641 v -3.051 l -2.66,-3.629 1.64,-1.011 c -23.98,-18.911 -53.09,-39.93 -87.34,-63.008 -34.03,-23.133 -72.47,-46.371 -115.36,-69.692 -42.69,-23.359 -88.94,-45.039 -138.75,-65.039 -49.57,-20 -101.91,-36.332 -157.03,-49.019 -55.35,-12.891 -112.46,-20.203 -171.4,-21.992 -58.91,-1.571 -118.91,4.21 -180.04,17.339 -61.13,13.09 -122.62,35.43 -184.42,67.032 -61.75,31.757 -123.16,74.769 -184.06,129.019 0,-0.461 5.59,-6.25 16.68,-17.34 11.13,-11.332 27.34,-26.129 48.67,-44.34 21.6,-18.242 48.13,-38.121 79.69,-59.679 31.6,-21.332 67.81,-42.352 108.71,-63.012 40.9,-20.469 86.37,-38.711 136.41,-54.687 50,-16.012 104.14,-27.692 162.38,-35.043 58.44,-7.34 120.82,-8.438 187.07,-3.321 66.25,5.352 136.25,18.793 210.08,40.352 73.55,21.57 150.7,53.25 231.4,95.039 80.47,41.801 164.15,95.781 251.06,162.031 l -139.38,93.719" /><path
         id="path18"
         style="fill:#027854;fill-opacity:1;fill-rule:nonzero;stroke:none"
         d="m 114.531,390.82 c -19.3005,0 -36.0896,2.93 -50.4724,8.75 -14.3672,5.942 -26.3281,14.258 -35.7773,25 -9.4922,10.7 -16.5625,23.629 -21.25005,38.75 C 2.33984,478.398 0,495.121 0,513.48 c 0,18 2.42188,34.45 7.33984,49.372 4.99996,15 12.39066,27.847 22.19146,38.597 9.7695,10.821 21.9492,19.211 36.5585,25.153 14.5704,5.937 31.4493,8.91 50.6292,8.91 12.383,0 23.16,-0.942 32.34,-2.813 9.14,-1.879 16.8,-4.539 22.972,-7.969 6.129,-3.359 10.699,-7.308 13.75,-11.878 3.008,-4.493 4.528,-9.372 4.528,-14.692 0,-3.672 -0.86,-6.949 -2.5,-9.84 -1.559,-2.808 -3.75,-5.269 -6.559,-7.34 -2.73,-2 -5.941,-3.519 -9.691,-4.531 -3.75,-1.058 -7.809,-1.57 -12.18,-1.57 0,5.199 -0.789,10.351 -2.348,15.473 -1.48,5.078 -3.98,9.687 -7.5,13.75 -3.441,4.058 -7.972,7.347 -13.59,9.847 -5.632,2.571 -12.5,3.903 -20.632,3.903 -14.18,0 -26.2074,-2.34 -36.0902,-7.032 -9.918,-4.609 -18.0469,-11.332 -24.379,-20.16 -6.25,-8.859 -10.8593,-19.801 -13.75,-32.808 -2.8085,-12.93 -4.2109,-27.731 -4.2109,-44.372 0,-16.679 1.4414,-31.492 4.3711,-44.378 3.0117,-12.93 7.8086,-23.75 14.3711,-32.5 6.6484,-8.75 15.2383,-15.43 25.7891,-20 10.5,-4.614 23.3598,-6.872 38.5898,-6.872 6.328,0 12.539,0.309 18.59,0.93 6.019,0.711 11.41,1.762 16.101,3.129 v 53.75 c 0,4.883 -0.742,8.789 -2.191,11.723 -1.48,3.008 -3.441,5.308 -5.941,6.867 -2.5,1.57 -5.43,2.582 -8.75,3.133 -3.36,0.617 -6.829,0.937 -10.469,0.937 h -1.399 v 13.903 h 86.719 v -13.903 h -1.41 c -3.129,0 -6.09,-0.32 -8.91,-0.937 -2.809,-0.551 -5.27,-1.641 -7.34,-3.282 -2.109,-1.679 -3.75,-4.14 -5,-7.351 -1.172,-3.117 -1.719,-7.301 -1.719,-12.5 v -60 c -11.172,-5.231 -22.66,-9.059 -34.531,-11.559 -11.801,-2.5 -24.84,-3.75 -39.219,-3.75 z m 113.36,17.34 c 3.828,0 7.379,0.238 10.629,0.789 3.32,0.5 6.171,1.602 8.589,3.281 2.5,1.641 4.45,4.059 5.942,7.18 1.437,3.211 2.179,7.43 2.179,12.66 v 178.75 c 0,4.879 -0.742,8.789 -2.179,11.719 -1.492,3.012 -3.442,5.313 -5.942,6.871 -2.5,1.641 -5.429,2.738 -8.75,3.289 -3.238,0.5 -6.718,0.781 -10.468,0.781 h -4.219 v 13.899 h 62.969 V 432.07 c 0,-5.23 0.66,-9.449 2.031,-12.66 1.449,-3.121 3.437,-5.539 5.937,-7.18 2.5,-1.679 5.391,-2.781 8.75,-3.281 3.321,-0.551 6.871,-0.789 10.621,-0.789 h 4.379 v -14.058 h -94.687 v 14.058 z" /><path
         id="path20"
         style="fill:#027854;fill-opacity:1;fill-rule:nonzero;stroke:none"
         d="m 496.91,483.789 c 0,-31.367 -6.68,-54.687 -20,-70 -13.238,-15.309 -32.648,-22.969 -58.281,-22.969 -12.109,0 -22.93,1.879 -32.5,5.629 -9.488,3.821 -17.609,9.602 -24.367,17.34 -6.684,7.691 -11.801,17.383 -15.313,29.063 -3.437,11.636 -5.16,25.308 -5.16,40.937 0,31.133 6.563,54.301 19.691,69.531 13.2,15.2 32.731,22.809 58.59,22.809 12.071,0 22.852,-1.867 32.34,-5.617 9.57,-3.75 17.699,-9.492 24.379,-17.192 6.641,-7.621 11.762,-17.191 15.313,-28.75 3.519,-11.558 5.308,-25.16 5.308,-40.781 z m -123.43,0 c 0,-12.418 0.782,-23.359 2.34,-32.809 1.641,-9.378 4.301,-17.269 7.969,-23.601 3.633,-6.359 8.359,-11.168 14.223,-14.367 5.816,-3.242 12.886,-4.852 21.25,-4.852 8.316,0 15.347,1.61 21.09,4.852 5.82,3.199 10.507,8.008 14.058,14.367 3.52,6.332 6.102,14.223 7.66,23.601 1.641,9.45 2.5,20.391 2.5,32.809 0,12.383 -0.859,23.199 -2.5,32.5 -1.679,9.371 -4.3,17.191 -7.808,23.441 -3.563,6.25 -8.242,10.93 -14.063,14.059 -5.859,3.121 -12.929,4.691 -21.25,4.691 -8.359,0 -15.429,-1.57 -21.25,-4.691 -5.75,-3.129 -10.429,-7.809 -14.07,-14.059 -3.551,-6.25 -6.168,-14.07 -7.809,-23.441 -1.558,-9.301 -2.34,-20.117 -2.34,-32.5 z" /><path
         id="path22"
         style="fill:#027854;fill-opacity:1;fill-rule:nonzero;stroke:none"
         d="m 702.031,483.789 c 0,-16.059 -1.519,-29.961 -4.531,-41.719 -2.93,-11.679 -7.301,-21.332 -13.121,-28.91 -5.75,-7.609 -12.82,-13.238 -21.258,-16.871 -8.43,-3.629 -18.121,-5.469 -29.062,-5.469 -6.481,0 -12.297,0.739 -17.5,2.192 -5.231,1.328 -9.918,3.316 -14.059,5.937 -4.18,2.571 -7.891,5.66 -11.09,9.211 -3.25,3.641 -6.058,7.66 -8.441,12.039 h -2.028 L 575,394.102 h -53.281 v 14.058 h 2.5 c 3.832,0 7.383,0.238 10.621,0.789 3.32,0.5 6.18,1.602 8.601,3.281 2.5,1.641 4.45,4.059 5.938,7.18 1.441,3.211 2.18,7.43 2.18,12.66 v 178.75 c 0,4.879 -0.739,8.789 -2.18,11.719 -1.488,3.012 -3.438,5.313 -5.938,6.871 -2.5,1.641 -5.429,2.738 -8.75,3.289 -3.242,0.5 -6.722,0.781 -10.472,0.781 h -2.5 v 13.899 h 61.25 v -61.09 c 0,-3.867 -0.078,-8.277 -0.16,-13.277 -0.11,-4.922 -0.27,-9.653 -0.469,-14.223 -0.231,-5.238 -0.43,-10.59 -0.621,-16.09 h 1.25 c 2.5,5.071 5.312,9.723 8.441,13.903 3.199,4.136 6.871,7.66 10.93,10.468 4.14,2.891 8.832,5.16 14.07,6.719 5.192,1.563 11.09,2.34 17.649,2.34 10.941,0 20.632,-1.828 29.062,-5.469 8.438,-3.672 15.508,-9.289 21.258,-16.871 5.82,-7.5 10.191,-17.109 13.121,-28.75 3.012,-11.559 4.531,-25.309 4.531,-41.25 z m -73.75,70.941 c -8.672,0 -15.902,-1.492 -21.722,-4.378 -5.86,-2.813 -10.469,-7.153 -13.899,-12.973 -3.441,-5.859 -5.941,-13.238 -7.5,-22.18 -1.488,-8.871 -2.191,-19.34 -2.191,-31.41 0,-11.559 0.703,-21.84 2.191,-30.777 1.559,-8.871 4.059,-16.371 7.5,-22.5 3.512,-6.063 8.199,-10.633 14.059,-13.75 5.82,-3.051 13.121,-4.532 21.871,-4.532 7.39,0 13.64,1.481 18.75,4.532 5.199,3.117 9.461,7.687 12.82,13.75 3.32,6.129 5.699,13.668 7.18,22.648 1.57,8.949 2.351,19.262 2.351,30.942 0,11.878 -0.781,22.226 -2.351,31.097 -1.481,8.821 -3.86,16.172 -7.18,22.031 -3.359,5.821 -7.66,10.192 -12.969,13.122 -5.242,2.886 -11.531,4.378 -18.91,4.378 z" /><path
         id="path24"
         style="fill:#027854;fill-opacity:1;fill-rule:nonzero;stroke:none"
         d="m 769.18,442.379 c 0,-10.43 2.191,-18.238 6.558,-23.43 4.383,-5.121 11.172,-7.66 20.473,-7.66 6.641,0 12.699,1.09 18.129,3.281 5.5,2.192 10.191,5.231 14.058,9.219 3.832,4.063 6.801,8.941 8.903,14.691 2.078,5.821 3.129,12.219 3.129,19.219 v 27.031 l -21.25,-0.941 c -9.489,-0.43 -17.418,-1.559 -23.75,-3.437 -6.371,-1.872 -11.52,-4.532 -15.469,-7.973 -3.871,-3.43 -6.641,-7.649 -8.281,-12.649 -1.68,-5 -2.5,-10.781 -2.5,-17.351 z m 40.308,117.191 c -6.367,0 -11.519,-0.941 -15.468,-2.808 -3.981,-1.801 -7.11,-4.301 -9.372,-7.5 -2.187,-3.242 -3.707,-7.114 -4.527,-11.563 -0.742,-4.5 -1.101,-9.34 -1.101,-14.539 -9.18,0 -16.211,1.57 -21.09,4.692 -4.809,3.199 -7.192,8.668 -7.192,16.41 0,5.699 1.563,10.539 4.692,14.527 3.121,4.063 7.422,7.34 12.968,9.84 5.512,2.582 11.872,4.461 19.063,5.633 7.269,1.25 15.039,1.867 23.277,1.867 10.203,0 19.102,-1.051 26.723,-3.117 7.578,-1.992 13.949,-5.282 19.059,-9.852 5.082,-4.488 8.91,-10.43 11.41,-17.808 2.582,-7.301 3.91,-16.25 3.91,-26.872 v -86.41 c 0,-4.691 0.351,-8.55 1.09,-11.558 0.82,-3.051 2.031,-5.473 3.59,-7.352 1.64,-1.871 3.789,-3.199 6.41,-3.898 2.691,-0.742 5.859,-1.102 9.531,-1.102 h 1.09 v -14.058 h -45.153 l -5.16,28.597 h -2.808 c -3.442,-4.609 -6.84,-8.871 -10.16,-12.82 -3.239,-3.859 -6.829,-7.258 -10.782,-10.149 -3.867,-2.82 -8.277,-5 -13.277,-6.57 -4.922,-1.558 -10.781,-2.34 -17.66,-2.34 -7.422,0 -14.289,1.09 -20.621,3.282 -6.371,2.07 -11.879,5.308 -16.559,9.687 -4.609,4.371 -8.211,9.883 -10.781,16.563 -2.621,6.636 -3.91,14.57 -3.91,23.75 0,17.699 6.289,30.82 18.91,39.378 12.57,8.508 31.64,13.2 57.18,14.059 l 27.66,0.941 v 20 c 0,5.93 -0.309,11.399 -0.942,16.399 -0.617,5.082 -2.027,9.461 -4.218,13.133 -2.18,3.629 -5.309,6.437 -9.372,8.437 -4.058,2.071 -9.527,3.121 -16.41,3.121 z" /><path
         id="path26"
         style="fill:#027854;fill-opacity:1;fill-rule:nonzero;stroke:none"
         d="m 916.289,408.16 c 3.832,0 7.383,0.238 10.621,0.789 3.32,0.5 6.18,1.602 8.602,3.281 2.5,1.641 4.449,4.059 5.937,7.18 1.442,3.211 2.18,7.43 2.18,12.66 v 178.75 c 0,4.879 -0.738,8.789 -2.18,11.719 -1.488,3.012 -3.437,5.313 -5.937,6.871 -2.5,1.641 -5.434,2.738 -8.75,3.289 -3.242,0.5 -6.723,0.781 -10.473,0.781 h -4.219 v 13.899 h 62.969 V 432.07 c 0,-5.23 0.66,-9.449 2.031,-12.66 1.45,-3.121 3.442,-5.539 5.942,-7.18 2.5,-1.679 5.386,-2.781 8.75,-3.281 3.316,-0.551 6.867,-0.789 10.618,-0.789 h 4.38 v -14.058 h -94.69 v 14.058 z" /><path
         id="path28"
         style="fill:#027854;fill-opacity:1;fill-rule:nonzero;stroke:none"
         d="m 1218.48,390.82 c -13.13,0 -24.93,1.371 -35.32,4.059 -10.43,2.82 -19.29,7.23 -26.56,13.281 -7.19,6.02 -12.73,13.789 -16.56,23.289 -3.75,9.449 -5.63,21.012 -5.63,34.68 v 129.383 c 0,4.879 -0.74,8.789 -2.18,11.718 -1.49,3 -3.44,5.309 -5.94,6.872 -2.5,1.636 -5.43,2.738 -8.75,3.277 -3.24,0.512 -6.72,0.781 -10.47,0.781 h -4.22 v 13.91 h 97.03 v -13.91 h -4.37 c -3.67,0 -7.19,-0.308 -10.63,-0.93 -3.36,-0.55 -6.25,-1.64 -8.75,-3.281 -2.42,-1.679 -4.33,-4.07 -5.78,-7.187 -1.48,-3.133 -2.19,-7.313 -2.19,-12.5 v -130.16 c 0,-9.692 1.33,-17.93 4.07,-24.692 2.81,-6.789 6.64,-12.301 11.56,-16.558 5,-4.18 10.86,-7.262 17.66,-9.223 6.75,-1.988 14.25,-2.969 22.5,-2.969 9.57,0 17.85,1.289 24.84,3.91 7.07,2.578 12.89,6.168 17.5,10.782 4.57,4.687 7.97,10.199 10.16,16.558 2.26,6.328 3.43,13.32 3.43,20.942 v 132.66 c 0,4.879 -0.74,8.789 -2.18,11.718 -1.49,3 -3.44,5.309 -5.94,6.872 -2.5,1.636 -5.43,2.738 -8.75,3.277 -3.36,0.512 -6.84,0.781 -10.47,0.781 h -4.22 v 13.91 h 83.59 v -13.91 h -4.37 c -3.67,0 -7.19,-0.308 -10.63,-0.93 -3.36,-0.55 -6.25,-1.64 -8.75,-3.281 -2.42,-1.679 -4.33,-4.07 -5.78,-7.187 -1.48,-3.133 -2.18,-7.313 -2.18,-12.5 V 462.23 c 0,-11.179 -1.8,-21.179 -5.32,-30 -3.55,-8.871 -8.75,-16.371 -15.62,-22.5 -6.88,-6.058 -15.43,-10.75 -25.63,-14.07 -10.23,-3.199 -21.95,-4.84 -35.15,-4.84 z" /><path
         id="path30"
         style="fill:#027854;fill-opacity:1;fill-rule:nonzero;stroke:none"
         d="m 1449.53,554.73 c -8.67,0 -15.9,-1.492 -21.72,-4.378 -5.86,-2.813 -10.47,-7.153 -13.9,-12.973 -3.44,-5.859 -5.94,-13.238 -7.5,-22.18 -1.49,-8.871 -2.19,-19.34 -2.19,-31.41 0,-11.559 0.7,-21.84 2.19,-30.777 1.56,-8.871 4.06,-16.371 7.5,-22.5 3.51,-6.063 8.2,-10.633 14.06,-13.75 5.82,-3.051 13.12,-4.532 21.87,-4.532 7.39,0 13.64,1.481 18.75,4.532 5.2,3.117 9.46,7.687 12.82,13.75 3.32,6.129 5.7,13.668 7.18,22.648 1.57,8.949 2.35,19.262 2.35,30.942 0,11.878 -0.78,22.226 -2.35,31.097 -1.48,8.821 -3.86,16.172 -7.18,22.031 -3.36,5.821 -7.66,10.192 -12.97,13.122 -5.24,2.886 -11.53,4.378 -18.91,4.378 z m 73.75,-70.941 c 0,-16.059 -1.52,-29.961 -4.53,-41.719 -2.93,-11.679 -7.3,-21.332 -13.13,-28.91 -5.74,-7.609 -12.81,-13.238 -21.24,-16.871 -8.44,-3.629 -18.13,-5.469 -29.07,-5.469 -6.48,0 -12.3,0.739 -17.5,2.192 -5.23,1.328 -9.92,3.316 -14.06,5.937 -4.18,2.571 -7.89,5.66 -11.09,9.211 -3.25,3.641 -6.06,7.66 -8.44,12.039 h -1.25 c 0.19,-5.859 0.39,-11.219 0.62,-16.097 0.08,-2.114 0.16,-4.301 0.16,-6.563 0.08,-2.187 0.16,-4.219 0.16,-6.09 0.07,-1.961 0.15,-3.75 0.15,-5.32 0.08,-1.641 0.16,-2.891 0.16,-3.75 v -31.867 c 0,-4.891 0.7,-8.793 2.19,-11.723 1.56,-3.008 3.51,-5.309 5.93,-6.879 2.5,-1.64 5.39,-2.691 8.75,-3.121 3.32,-0.508 6.8,-0.777 10.47,-0.777 h 1.1 v -14.063 h -89.69 v 14.063 h 2.5 c 3.83,0 7.38,0.269 10.62,0.777 3.32,0.551 6.18,1.68 8.6,3.441 2.5,1.68 4.45,4.141 5.93,7.34 1.45,3.129 2.19,7.309 2.19,12.5 v 184.059 c 0,4.891 -0.74,8.793 -2.19,11.723 -1.48,3.007 -3.43,5.308 -5.93,6.878 -2.5,1.641 -5.43,2.731 -8.75,3.282 -3.24,0.508 -6.72,0.777 -10.47,0.777 h -4.22 v 14.063 h 58.28 l 3.44,-30.153 h 1.25 c 2.5,5.071 5.31,9.723 8.44,13.903 3.2,4.136 6.87,7.66 10.93,10.468 4.14,2.891 8.83,5.16 14.07,6.719 5.19,1.563 11.09,2.34 17.65,2.34 10.94,0 20.63,-1.828 29.07,-5.469 8.43,-3.672 15.5,-9.289 21.24,-16.871 5.83,-7.5 10.2,-17.109 13.13,-28.75 3.01,-11.559 4.53,-25.309 4.53,-41.25 z" /><path
         id="path32"
         style="fill:#027854;fill-opacity:1;fill-rule:nonzero;stroke:none"
         d="m 1637.15,408.16 v -14.058 h -89.69 v 14.058 h 2.5 c 3.83,0 7.38,0.238 10.63,0.789 3.32,0.5 6.17,1.602 8.59,3.281 2.5,1.641 4.45,4.059 5.94,7.18 1.44,3.211 2.18,7.43 2.18,12.66 v 178.75 c 0,4.879 -0.74,8.789 -2.18,11.719 -1.49,3.012 -3.44,5.313 -5.94,6.871 -2.5,1.641 -5.43,2.738 -8.75,3.289 -3.24,0.5 -6.72,0.781 -10.47,0.781 h -2.5 v 13.899 h 61.25 v -73.277 c 0,-3.051 -0.08,-6.211 -0.16,-9.532 -0.11,-3.242 -0.27,-6.25 -0.46,-9.058 -0.24,-3.364 -0.43,-6.563 -0.63,-9.692 h 1.56 c 10,20.2 26.33,30.309 49.07,30.309 9.45,0 17.85,-1.328 25.15,-3.899 7.27,-2.5 13.44,-6.41 18.44,-11.718 5,-5.242 8.79,-11.961 11.41,-20.16 2.57,-8.243 3.9,-18.082 3.9,-29.532 v -78.75 c 0,-5.23 0.63,-9.449 1.88,-12.66 1.33,-3.121 3.16,-5.539 5.47,-7.18 2.26,-1.679 5,-2.781 8.12,-3.281 3.2,-0.551 6.64,-0.789 10.31,-0.789 h 0.94 v -14.058 h -57.97 v 115.16 c 0,7.258 -0.7,13.75 -2.03,19.367 -1.25,5.633 -3.36,10.351 -6.25,14.223 -2.81,3.949 -6.56,6.918 -11.25,8.91 -4.69,1.949 -10.39,2.968 -17.03,2.968 -6.99,0 -13.05,-1.332 -18.13,-3.91 -5,-2.5 -9.17,-6.09 -12.5,-10.781 -3.24,-4.687 -5.7,-10.391 -7.34,-17.027 -1.68,-6.684 -2.5,-14.063 -2.5,-22.192 v -70.468 c 0,-4.922 0.7,-8.872 2.19,-11.872 1.56,-2.929 3.51,-5.16 5.94,-6.718 2.5,-1.492 5.39,-2.461 8.75,-2.973 3.32,-0.43 6.79,-0.629 10.46,-0.629 z" /><path
         id="path34"
         style="fill:#027854;fill-opacity:1;fill-rule:nonzero;stroke:none"
         d="m 1765.08,408.16 c 3.75,0 7.22,0.199 10.47,0.629 3.32,0.512 6.25,1.481 8.75,2.973 2.5,1.558 4.45,3.789 5.93,6.718 1.45,3 2.19,6.95 2.19,11.872 v 105.777 c 0,4.891 -0.74,8.793 -2.19,11.723 -1.48,3.007 -3.43,5.308 -5.93,6.878 -2.5,1.641 -5.43,2.731 -8.75,3.282 -3.25,0.508 -6.72,0.777 -10.47,0.777 h -0.94 v 14.063 h 59.53 V 432.07 c 0,-5.23 0.71,-9.449 2.19,-12.66 1.44,-3.121 3.36,-5.539 5.78,-7.18 2.5,-1.679 5.39,-2.781 8.75,-3.281 3.44,-0.551 6.95,-0.789 10.63,-0.789 h 4.37 v -14.058 h -94.69 v 14.058 z m 22.65,218.75 c 0,3.949 0.47,7.231 1.41,9.852 1.02,2.578 2.38,4.687 4.06,6.25 1.76,1.636 3.79,2.808 6.1,3.437 2.26,0.621 4.76,0.93 7.5,0.93 2.58,0 5.04,-0.309 7.34,-0.93 2.27,-0.629 4.26,-1.801 5.94,-3.437 1.64,-1.563 3.01,-3.672 4.06,-6.25 1.02,-2.621 1.56,-5.903 1.56,-9.852 0,-3.859 -0.54,-7.109 -1.56,-9.68 -1.05,-2.621 -2.42,-4.769 -4.06,-6.41 -1.68,-1.679 -3.67,-2.89 -5.94,-3.59 -2.3,-0.628 -4.76,-0.941 -7.34,-0.941 -2.74,0 -5.24,0.313 -7.5,0.941 -2.31,0.7 -4.34,1.911 -6.1,3.59 -1.68,1.641 -3.04,3.789 -4.06,6.41 -0.94,2.571 -1.41,5.821 -1.41,9.68 z" /><path
         id="path36"
         style="fill:#027854;fill-opacity:1;fill-rule:nonzero;stroke:none"
         d="m 1967.19,394.102 h -96.25 v 14.058 h 0.94 c 3.82,0 7.38,0.238 10.62,0.789 3.32,0.5 6.17,1.602 8.59,3.281 2.5,1.641 4.46,4.059 5.94,7.18 1.45,3.211 2.19,7.43 2.19,12.66 v 104.059 c 0,4.891 -0.74,8.793 -2.19,11.723 -1.48,3.007 -3.44,5.308 -5.94,6.878 -2.5,1.641 -5.43,2.731 -8.75,3.282 -3.24,0.508 -6.72,0.777 -10.46,0.777 h -0.94 v 14.063 h 51.25 l 6.4,-32.973 h 1.57 c 2.18,5 4.41,9.691 6.72,14.07 2.26,4.371 5.03,8.16 8.28,11.403 3.32,3.32 7.42,5.937 12.34,7.808 4.88,1.961 11.02,2.969 18.44,2.969 12.18,0 21.17,-2.149 27.03,-6.399 5.94,-4.179 8.91,-10.121 8.91,-17.82 0,-3.551 -0.59,-6.789 -1.72,-9.68 -1.18,-2.929 -2.97,-5.468 -5.47,-7.66 -2.5,-2.109 -5.74,-3.711 -9.69,-4.84 -3.87,-1.058 -8.59,-1.57 -14.22,-1.57 0,9.141 -1.33,15.789 -3.9,19.852 -2.62,4.058 -7.15,6.09 -13.6,6.09 -4.18,0 -7.89,-1.211 -11.09,-3.59 -3.24,-2.313 -6.1,-5.391 -8.6,-9.223 -2.42,-3.867 -4.49,-8.277 -6.25,-13.277 -1.68,-4.922 -3.04,-10 -4.06,-15.313 -0.94,-5.238 -1.68,-10.429 -2.19,-15.629 -0.43,-5.23 -0.62,-9.961 -0.62,-14.218 v -52.5 c 0,-4.922 0.7,-8.872 2.19,-11.872 1.44,-2.929 3.43,-5.16 5.93,-6.718 2.5,-1.492 5.39,-2.461 8.75,-2.973 3.32,-0.43 6.8,-0.629 10.47,-0.629 h 9.38 z" /><path
         id="path38"
         style="fill:#027854;fill-opacity:1;fill-rule:nonzero;stroke:none"
         d="m 2108.52,558.16 c -12.43,0 -21.96,-5 -28.6,-15 -6.68,-10 -10.62,-24.68 -11.87,-44.058 h 76.72 c 0,8.75 -0.71,16.757 -2.04,24.058 -1.25,7.27 -3.28,13.52 -6.09,18.75 -2.81,5.199 -6.56,9.219 -11.25,12.039 -4.61,2.813 -10.23,4.211 -16.87,4.211 z m 4.06,-167.34 c -12.11,0 -22.93,2.032 -32.5,6.09 -9.61,4.07 -17.74,10 -24.38,17.82 -6.68,7.809 -11.79,17.379 -15.31,28.75 -3.44,11.321 -5.16,24.25 -5.16,38.75 0,31.129 6.41,54.571 19.22,70.309 12.82,15.699 31.02,23.59 54.69,23.59 10.7,0 20.35,-1.719 28.91,-5.149 8.63,-3.359 15.93,-8.359 21.87,-15 5.94,-6.679 10.51,-15 13.75,-25 3.21,-9.929 4.85,-21.41 4.85,-34.531 v -15.32 h -111.1 c 0.2,-12.109 1.41,-22.5 3.6,-31.25 2.26,-8.75 5.5,-15.93 9.68,-21.559 4.14,-5.621 9.26,-9.8 15.32,-12.5 6.13,-2.621 13.16,-3.91 21.09,-3.91 5.7,0 11.01,0.629 15.94,1.879 5,1.332 9.45,3.051 13.43,5.16 4.07,2.18 7.58,4.602 10.63,7.34 3.12,2.813 5.66,5.781 7.66,8.91 1.56,-0.75 3,-2.148 4.37,-4.219 1.33,-2 2.03,-4.378 2.03,-7.191 0,-3.437 -1.21,-7.109 -3.59,-10.937 -2.42,-3.872 -6.06,-7.422 -10.94,-10.622 -4.92,-3.25 -11.02,-5.941 -18.28,-8.128 -7.31,-2.192 -15.9,-3.282 -25.78,-3.282 z" /><path
         id="path40"
         style="fill:#027854;fill-opacity:1;fill-rule:nonzero;stroke:none"
         d="m 2294.53,394.102 v 14.058 h 4.22 c 3.83,0 7.38,0.238 10.63,0.789 3.32,0.5 6.24,1.602 8.74,3.281 2.5,1.641 4.42,4.059 5.79,7.18 1.44,3.211 2.18,7.43 2.18,12.66 v 162.192 c 0,5.187 -0.74,9.367 -2.18,12.5 -1.37,3.117 -3.29,5.508 -5.79,7.187 -2.5,1.641 -5.42,2.731 -8.74,3.281 -3.25,0.622 -6.8,0.93 -10.63,0.93 h -4.22 v 13.91 h 97.03 v -13.91 h -4.37 c -3.67,0 -7.15,-0.269 -10.47,-0.781 -3.36,-0.539 -6.25,-1.641 -8.75,-3.277 -2.5,-1.563 -4.49,-3.872 -5.94,-6.872 -1.48,-2.929 -2.19,-6.839 -2.19,-11.718 V 410.66 h 65.78 c 5,0 9.26,0.86 12.82,2.66 3.51,1.879 6.44,4.219 8.75,7.032 2.26,2.886 3.98,6.128 5.15,9.687 1.25,3.633 2.11,7.231 2.66,10.781 l 3.12,24.84 h 17.5 l -2.34,-71.558 z" /><path
         id="path42"
         style="fill:#027854;fill-opacity:1;fill-rule:nonzero;stroke:none"
         d="m 2502.27,394.102 v 14.058 h 4.21 c 3.83,0 7.39,0.238 10.63,0.789 3.32,0.5 6.25,1.602 8.75,3.281 2.5,1.641 4.41,4.059 5.78,7.18 1.45,3.211 2.19,7.43 2.19,12.66 v 162.192 c 0,5.187 -0.74,9.367 -2.19,12.5 -1.37,3.117 -3.28,5.508 -5.78,7.187 -2.5,1.641 -5.43,2.731 -8.75,3.281 -3.24,0.622 -6.8,0.93 -10.63,0.93 h -4.21 v 13.91 h 97.03 v -13.91 h -4.38 c -3.67,0 -7.15,-0.269 -10.47,-0.781 -3.36,-0.539 -6.25,-1.641 -8.75,-3.277 -2.5,-1.563 -4.49,-3.872 -5.93,-6.872 -1.49,-2.929 -2.19,-6.839 -2.19,-11.718 V 410.66 h 65.78 c 5,0 9.26,0.86 12.81,2.66 3.52,1.879 6.45,4.219 8.75,7.032 2.27,2.886 3.99,6.128 5.16,9.687 1.25,3.633 2.11,7.231 2.65,10.781 l 3.13,24.84 h 17.5 l -2.34,-71.558 z" /><path
         id="path44"
         style="fill:#027854;fill-opacity:1;fill-rule:nonzero;stroke:none"
         d="m 2823.44,635.512 c 11.33,0 21.17,-0.942 29.53,-2.813 8.44,-1.879 15.47,-4.539 21.09,-7.969 5.63,-3.359 9.77,-7.308 12.5,-11.878 2.82,-4.493 4.22,-9.372 4.22,-14.692 0,-3.672 -0.74,-6.949 -2.19,-9.84 -1.48,-2.808 -3.51,-5.269 -6.09,-7.34 -2.62,-2 -5.7,-3.519 -9.22,-4.531 -3.55,-1.058 -7.42,-1.57 -11.56,-1.57 0,5.199 -0.7,10.351 -2.03,15.473 -1.37,5.078 -3.6,9.687 -6.72,13.75 -3.05,4.058 -7.03,7.347 -12.03,9.847 -4.92,2.571 -11.02,3.903 -18.28,3.903 -12.62,0 -23.28,-2.34 -32.04,-7.032 -8.74,-4.609 -15.93,-11.332 -21.56,-20.16 -5.54,-8.859 -9.53,-19.801 -12.03,-32.808 -2.5,-12.93 -3.75,-27.731 -3.75,-44.372 0,-14.929 1.29,-28.558 3.91,-40.941 2.58,-12.418 6.72,-23.051 12.34,-31.879 5.7,-8.75 12.97,-15.582 21.72,-20.461 8.75,-4.929 19.22,-7.347 31.41,-7.347 8.12,0 15.31,0.777 21.56,2.347 6.25,1.563 11.76,3.629 16.56,6.25 4.77,2.571 8.99,5.621 12.66,9.063 3.63,3.437 6.87,6.949 9.68,10.617 1.88,-1.168 3.36,-2.77 4.54,-4.84 1.25,-2.109 1.87,-4.809 1.87,-8.129 0,-4.289 -1.48,-8.59 -4.37,-12.961 -2.93,-4.379 -7.31,-8.398 -13.13,-12.039 -5.86,-3.551 -13.28,-6.519 -22.34,-8.898 -8.99,-2.274 -19.65,-3.442 -32.03,-3.442 -16.57,0 -31.18,2.93 -43.75,8.75 -12.62,5.942 -23.21,14.258 -31.72,25 -8.56,10.7 -15,23.629 -19.38,38.75 -4.29,15.078 -6.4,31.801 -6.4,50.16 0,18 2.22,34.45 6.71,49.372 4.58,15 11.33,27.847 20.32,38.597 8.94,10.821 20.08,19.211 33.44,25.153 13.43,5.937 28.94,8.91 46.56,8.91 z" /></g></g></svg>