<?xml version="1.0" encoding="utf-8"?>
<!-- Generator: Adobe Illustrator 27.5.0, SVG Export Plug-In . SVG Version: 6.00 Build 0)  -->
<svg version="1.1" id="Layer_1" xmlns="http://www.w3.org/2000/svg" xmlns:xlink="http://www.w3.org/1999/xlink" x="0px" y="0px"
	 viewBox="0 0 396 126" style="enable-background:new 0 0 396 126;" xml:space="preserve">
<style type="text/css">
	.st0{fill:#FFFFFF;}
</style>
<g>
	<circle class="st0" cx="89.1" cy="97.7" r="6.1"/>
	<circle class="st0" cx="89.1" cy="29.7" r="6.1"/>
</g>
<path class="st0" d="M125.1,75c0-4.1-1.3-8-3.7-11.3c2.4-3.3,3.6-7.2,3.6-11.2c0,0,0-0.1,0-0.1c0-5.2-2.2-10.3-6-13.9
	c-3.6-3.4-8.2-5.2-13.1-5.2c-2.5,0-5.4,0.9-8.7,2.6c-2.6,1.4-5.4,3.4-8.2,5.7c1.2,1,2.4,2,3.6,3.1c2.3-1.8,4.7-3.5,7-4.7
	c2.5-1.3,4.6-2,6.3-2l0,0l0,0c3.6,0,7,1.3,9.6,3.8c2.9,2.7,4.5,6.6,4.6,10.6c0,0,0,0,0,0.1c0,3.6-1.3,7.1-3.7,9.8l-1.3,1.5l1.4,1.5
	c2.4,2.7,3.7,6.1,3.8,9.8c0,0,0,0,0,0.1c0,7.9-6.3,14.4-14.1,14.5c-1.6,0-3.8-0.7-6.3-2c-10.9-5.6-24.1-22.3-25.2-24
	c-0.9-1.5-2.3-2.3-3.4-1.6c-0.3,0.1-0.4,0.4-0.6,0.6c0,0.1-0.1,0.3-0.1,0.4c0,0,0,0.1,0,0.1c-0.1,0.3-0.1,0.6-0.1,0.8c0,0,0,0,0,0.1
	c0,0.2,0,0.3,0,0.5c0,0.1,0,0.3,0.1,0.4c1,3.6,7.5,11.4,14.9,17.9c1.2,1.1,2.4,2.1,3.6,3.1c2.9,2.3,5.9,4.4,8.6,5.8
	c3.3,1.7,6.2,2.5,8.7,2.5C116.6,94.1,125.1,85.5,125.1,75z"/>
<path class="st0" d="M80.6,91.5c2.6-1.4,5.4-3.4,8.2-5.7c-1.2-1-2.4-2-3.6-3.1c-2.3,1.8-4.7,3.5-7,4.7c-2.5,1.3-4.6,2-6.3,2l0,0l0,0
	c-3.6,0-7-1.3-9.6-3.8c-2.9-2.7-4.5-6.6-4.6-10.6c0,0,0,0,0-0.1c0-3.6,1.3-7.1,3.7-9.8l1.3-1.5l-1.4-1.5c-2.4-2.7-3.7-6.1-3.8-9.8
	c0,0,0,0,0-0.1C57.7,44.5,64,38,71.8,38c1.6,0,3.8,0.7,6.3,2c10.9,5.6,24.1,22.3,25.2,24c0.9,1.5,2.3,2.3,3.4,1.6
	c0.3-0.1,0.4-0.4,0.6-0.6c0-0.1,0.1-0.3,0.1-0.4c0,0,0-0.1,0-0.1c0.1-0.3,0.1-0.6,0.1-0.8c0,0,0,0,0-0.1c0-0.2,0-0.3,0-0.5
	c0-0.1,0-0.3-0.1-0.4c-1-3.6-7.5-11.4-14.9-17.9c-1.2-1.1-2.4-2.1-3.6-3.1c-2.9-2.3-5.9-4.4-8.6-5.8c-3.3-1.7-6.2-2.5-8.7-2.5
	c-10.5,0-18.9,8.6-18.9,19.2c0,4.1,1.3,8,3.7,11.3c-2.4,3.3-3.6,7.2-3.6,11.2c0,0,0,0.1,0,0.1c0,5.2,2.2,10.3,6,13.9
	c3.6,3.4,8.2,5.2,13.1,5.2C74.5,94.1,77.4,93.3,80.6,91.5z"/>
<circle class="st0" cx="132.4" cy="63.7" r="6.1"/>
<circle class="st0" cx="45.5" cy="63.7" r="6.1"/>
<g>
	<path class="st0" d="M212.9,78.7h1.4v6.1h7.7v-6.1h1.4v14.1H222v-6.7h-7.7v6.7h-1.4V78.7z"/>
	<path class="st0" d="M240.9,91.5h7.5v1.3h-9V78.7h8.7v1.3h-7.3v4.8h6.8v1.3h-6.8V91.5z"/>
	<path class="st0" d="M263.3,92.8h-1.7l6.1-14.1h1.4l6.1,14.1h-1.7l-1.6-3.7h-7.2L263.3,92.8z M265.3,87.8h6.1l-3-7.4L265.3,87.8z"
		/>
	<path class="st0" d="M290.8,91.5h6.6v1.3h-8V78.7h1.4V91.5z"/>
	<path class="st0" d="M314.2,92.8h-1.4V80.1h-4.7v-1.3h10.9v1.3h-4.7V92.8z"/>
	<path class="st0" d="M333.3,78.7h1.4v6.1h7.7v-6.1h1.4v14.1h-1.4v-6.7h-7.7v6.7h-1.4V78.7z"/>
</g>
<g>
	<path class="st0" d="M159.7,67.8l-12.5-31.4c-0.2-0.6-0.5-1-0.8-1.3c-0.3-0.3-0.7-0.5-1.2-0.5l-1.5-0.1v-1.1h13.2v1.1l-1.5,0.1
		c-1,0.1-1.7,0.3-2.1,0.5c-0.4,0.3-0.6,0.7-0.6,1.3c0,0.2,0,0.5,0.1,0.8s0.2,0.6,0.3,0.9l8.8,22.4l8-21.7c0.1-0.4,0.2-0.8,0.3-1.1
		c0.1-0.3,0.1-0.6,0.1-0.9c0-0.8-0.3-1.4-0.9-1.7c-0.6-0.3-1.7-0.5-3.2-0.5v-1.1H177v1.1l-1.1,0.2c-1.2,0.2-2.1,0.6-2.7,1.2
		s-1.1,1.6-1.7,3.2l-10.8,28.7H159.7z"/>
	<path class="st0" d="M192.6,67.7c-4.8,0-8.8-1.6-11.9-4.9c-3.1-3.3-4.7-7.5-4.7-12.6c0-5.1,1.5-9.3,4.6-12.5
		c3.1-3.2,7-4.9,11.8-4.9c4.9,0,8.9,1.6,12,4.9s4.6,7.5,4.6,12.7c0,5.2-1.5,9.4-4.6,12.6S197.5,67.7,192.6,67.7z M181.2,50.6
		c0,4.7,1.1,8.5,3.2,11.5c2.1,3,4.8,4.4,8.1,4.4c3.4,0,6.2-1.5,8.3-4.5c2.1-3,3.2-6.9,3.2-11.8c0-5-1-8.9-3.1-11.9
		c-2.1-3-4.8-4.4-8.2-4.4c-3.4,0-6.2,1.5-8.3,4.6C182.3,41.5,181.2,45.5,181.2,50.6z"/>
	<path class="st0" d="M212.9,67.1v-1.2h0.3c1.3,0,2.2-0.2,2.6-0.5c0.4-0.3,0.6-1.3,0.6-2.9v-0.5V37.8c0-1.5-0.2-2.5-0.6-2.8
		c-0.4-0.3-1.3-0.5-2.6-0.5h-0.3v-1.2h12.8v1.1c-1.9,0-3.1,0.3-3.6,0.7c-0.5,0.4-0.7,1.6-0.7,3.4v23.8c0,1.5,0.3,2.5,0.8,3
		s1.7,0.7,3.5,0.7h3.2c3,0,5.4-0.6,7.1-1.8c1.7-1.2,3.7-3.8,5.9-8h1.1l-2.7,10.9H212.9z"/>
	<path class="st0" d="M245.3,67.1v-1.2l1.6-0.3c1-0.2,1.9-1.8,3-4.8c0.5-1.4,0.9-2.6,1.2-3.4l7.2-18.7c0,0,0-0.1,0-0.1
		c0.1-0.3,0.2-0.6,0.2-0.7s0-0.3-0.1-0.5c-0.1-0.2-0.1-0.3-0.2-0.5l-0.4-0.7c0.7-0.5,1.4-1,2-1.7c0.6-0.6,1.2-1.3,1.7-2.1h0.5
		l11.9,30.9c0.4,1.1,0.9,1.8,1.3,2.1c0.5,0.3,1.2,0.5,2.2,0.5v1.2h-12.7v-1.2l1.5-0.2c1-0.1,1.7-0.3,1.9-0.5s0.4-0.6,0.4-1
		c0-0.2,0-0.5-0.1-0.8s-0.1-0.6-0.2-0.8l-3-8.1h-11.4l-2.5,6.8c-0.3,0.7-0.4,1.3-0.5,1.7c-0.1,0.4-0.1,0.8-0.1,1.1
		c0,0.5,0.2,0.9,0.6,1.2c0.4,0.3,1.1,0.5,2.2,0.7l1,0.1v1.1H245.3z M254.2,53h10.4l-5.4-13.8L254.2,53z"/>
	<path class="st0" d="M304.6,67.1l-2.1-4c-2-3.8-3.9-6.7-5.8-8.6c-1.9-1.9-3.7-2.8-5.5-2.8c-0.2,0-0.3,0-0.4,0c-0.1,0-0.2,0-0.2,0
		l0,11.3c0,1.1,0.2,1.9,0.7,2.3c0.5,0.4,1.7,0.6,3.5,0.7l0,1.1h-12.8v-1.2h0.3c1.3,0,2.2-0.2,2.6-0.5c0.4-0.3,0.6-1.4,0.6-3.1v-0.2
		V38c0-1.7-0.2-2.7-0.6-3c-0.4-0.3-1.3-0.5-2.7-0.5h-0.3v-1.2h2.6c0.4,0,1.4,0,2.8,0c1.5,0,2.7,0,3.8,0c6,0,10.2,0.7,12.6,2.1
		c2.4,1.4,3.6,3.8,3.6,7.2c0,2.3-0.6,4.2-1.9,5.6c-1.3,1.5-3.1,2.5-5.6,3.1c2,1.8,4.1,4.8,6.5,9.1c0.7,1.2,1.2,2.1,1.5,2.7
		c0.6,1.1,1.3,1.8,1.9,2.2s1.5,0.6,2.5,0.6h0.4v1.2H304.6z M290.5,50.7h0.1c1,0.1,1.7,0.1,2.1,0.1c3.3,0,5.7-0.7,7.2-2
		s2.3-3.5,2.3-6.4c0-2.6-0.7-4.6-2.2-6c-1.5-1.4-3.5-2.1-6.2-2.1c-1.2,0-2.1,0.2-2.6,0.7c-0.5,0.5-0.8,1.3-0.8,2.5V50.7z"/>
	<path class="st0" d="M317.4,67.1V66c1.5,0,2.5-0.2,2.9-0.5c0.4-0.3,0.6-1.2,0.6-2.7v-0.6V37.8c0-1.5-0.2-2.5-0.6-2.8
		c-0.4-0.3-1.3-0.5-2.6-0.5h-0.3v-1.2h24.4l2.4,7.7l-1,0.4c-1.1-1.7-1.9-3-2.6-3.8c-0.7-0.8-1.4-1.5-2.1-2c-0.6-0.5-1.5-0.8-2.5-1
		s-2.7-0.3-5.2-0.3h-0.8h-4.2v14.8c0.5,0,0.9,0,1.3,0c0.4,0,0.8,0,1.2,0c2.9,0,4.9-0.4,6-1.3c1-0.9,1.7-2.5,2-4.9h0.8v13.5h-0.8
		c-0.3-2.4-1-4-2-4.9c-1-0.9-3-1.3-6-1.3h-2.5v11.9c0,1.5,0.3,2.5,0.8,3s1.6,0.7,3.2,0.7h3c2.8,0,4.9-0.5,6.3-1.4
		c1.4-0.9,3.2-3.1,5.3-6.6l0.9,0.3l-1.8,8.8H317.4z"/>
</g>
</svg>
